#N canvas 4453 16 2246 1461 12;
#X obj 738 768 *~ 0.25;
#X obj 731 872 output~;
#X obj 738 809 lop~ 500;
#X floatatom 850 849 5 0 0 0 - - - 0;
#X obj 856 801 hsl 128 15 0 2000 0 0 empty empty empty -2 -8 0 10 #e3c6ff
#000000 #000000 0 1;
#X obj 739 726 osc~;
#X obj 533 17 tgl 15 0 empty empty empty 17 7 0 10 #fcfcfc #000000
#000000 0 1;
#X obj 536 113 bng 15 250 50 0 empty empty empty 17 7 0 10 #fcfcfc
#000000 #000000;
#X obj 525 -52 loadbang;
#X obj 530 159 int 1;
#X obj 492 133 + 1;
#X floatatom 530 200 5 0 0 0 - - - 0;
#X floatatom 529 319 5 0 0 0 - - - 0;
#X obj 107 499 bng 15 250 50 0 empty empty empty 17 7 0 10 #fcfcfc
#000000 #000000;
#X obj 124 499 bng 15 250 50 0 empty empty empty 17 7 0 10 #fcfcfc
#000000 #000000;
#X obj 141 499 bng 15 250 50 0 empty empty empty 17 7 0 10 #fcfcfc
#000000 #000000;
#X obj 157 499 bng 15 250 50 0 empty empty empty 17 7 0 10 #fcfcfc
#000000 #000000;
#X msg 667 40 tempo \$1 permin;
#X floatatom 654 11 5 0 0 0 - - - 0;
#X obj 534 63 metro;
#X obj 531 282 + 1;
#X obj 735 628 select 0;
#X obj 740 661 mtof;
#X floatatom 738 691 5 0 0 0 - - - 0;
#X obj 174 499 bng 15 250 50 0 empty empty empty 17 7 0 10 #fcfcfc
#000000 #000000;
#X obj 209 500 bng 15 250 50 0 empty empty empty 17 7 0 10 #fcfcfc
#000000 #000000;
#X obj 226 500 bng 15 250 50 0 empty empty empty 17 7 0 10 #fcfcfc
#000000 #000000;
#X obj 244 500 bng 15 250 50 0 empty empty empty 17 7 0 10 #fcfcfc
#000000 #000000;
#X obj 262 500 bng 15 250 50 0 empty empty empty 17 7 0 10 #fcfcfc
#000000 #000000;
#X obj 279 500 bng 15 250 50 0 empty empty empty 17 7 0 10 #fcfcfc
#000000 #000000;
#X obj 296 500 bng 15 250 50 0 empty empty empty 17 7 0 10 #fcfcfc
#000000 #000000;
#X obj 191 499 bng 15 250 50 0 empty empty empty 17 7 0 10 #fcfcfc
#000000 #000000;
#X obj 313 500 bng 15 250 50 0 empty empty empty 17 7 0 10 #fcfcfc
#000000 #000000;
#X obj 80 439 select 1 2 3 4 5 6 7 8 9 10 11 12 13 14 15 16;
#X obj 330 500 bng 15 250 50 0 empty empty empty 17 7 0 10 #fcfcfc
#000000 #000000;
#X obj 347 500 bng 15 250 50 0 empty empty empty 17 7 0 10 #fcfcfc
#000000 #000000;
#X obj 364 501 bng 15 250 50 0 empty empty empty 17 7 0 10 #fcfcfc
#000000 #000000;
#X msg 69 555 76, f 2;
#X msg 95 554 0, f 1;
#X msg 113 554 74, f 2;
#X msg 138 554 69, f 2;
#X msg 163 554 0, f 1;
#X msg 180 554 64, f 2;
#X msg 204 554 0, f 1;
#X msg 221 554 76, f 2;
#X msg 246 554 0, f 1;
#X msg 264 554 0, f 1;
#X msg 281 554 74, f 2;
#X msg 304 554 69, f 2;
#X msg 327 554 0, f 1;
#X msg 345 554 64, f 2;
#X msg 369 554 0, f 1;
#X msg 386 554 0, f 1;
#X msg 604 -29 70;
#X obj 622 -6 * 4;
#X obj 446 499 bng 15 250 50 0 empty empty empty 17 7 0 10 #fcfcfc
#000000 #000000;
#X obj 463 499 bng 15 250 50 0 empty empty empty 17 7 0 10 #fcfcfc
#000000 #000000;
#X obj 480 499 bng 15 250 50 0 empty empty empty 17 7 0 10 #fcfcfc
#000000 #000000;
#X obj 496 499 bng 15 250 50 0 empty empty empty 17 7 0 10 #fcfcfc
#000000 #000000;
#X obj 513 499 bng 15 250 50 0 empty empty empty 17 7 0 10 #fcfcfc
#000000 #000000;
#X obj 548 500 bng 15 250 50 0 empty empty empty 17 7 0 10 #fcfcfc
#000000 #000000;
#X obj 565 500 bng 15 250 50 0 empty empty empty 17 7 0 10 #fcfcfc
#000000 #000000;
#X obj 583 500 bng 15 250 50 0 empty empty empty 17 7 0 10 #fcfcfc
#000000 #000000;
#X obj 601 500 bng 15 250 50 0 empty empty empty 17 7 0 10 #fcfcfc
#000000 #000000;
#X obj 618 500 bng 15 250 50 0 empty empty empty 17 7 0 10 #fcfcfc
#000000 #000000;
#X obj 635 500 bng 15 250 50 0 empty empty empty 17 7 0 10 #fcfcfc
#000000 #000000;
#X obj 530 499 bng 15 250 50 0 empty empty empty 17 7 0 10 #fcfcfc
#000000 #000000;
#X obj 652 500 bng 15 250 50 0 empty empty empty 17 7 0 10 #fcfcfc
#000000 #000000;
#X obj 669 500 bng 15 250 50 0 empty empty empty 17 7 0 10 #fcfcfc
#000000 #000000;
#X obj 686 500 bng 15 250 50 0 empty empty empty 17 7 0 10 #fcfcfc
#000000 #000000;
#X obj 703 501 bng 15 250 50 0 empty empty empty 17 7 0 10 #fcfcfc
#000000 #000000;
#X msg 434 554 0, f 1;
#X msg 502 554 0, f 1;
#X msg 543 554 0, f 1;
#X msg 585 554 0, f 1;
#X msg 603 554 0, f 1;
#X msg 666 554 0, f 1;
#X msg 708 554 0, f 1;
#X msg 725 554 0, f 1;
#X obj 785 499 bng 15 250 50 0 empty empty empty 17 7 0 10 #fcfcfc
#000000 #000000;
#X obj 802 499 bng 15 250 50 0 empty empty empty 17 7 0 10 #fcfcfc
#000000 #000000;
#X obj 819 499 bng 15 250 50 0 empty empty empty 17 7 0 10 #fcfcfc
#000000 #000000;
#X obj 835 499 bng 15 250 50 0 empty empty empty 17 7 0 10 #fcfcfc
#000000 #000000;
#X obj 852 499 bng 15 250 50 0 empty empty empty 17 7 0 10 #fcfcfc
#000000 #000000;
#X obj 887 500 bng 15 250 50 0 empty empty empty 17 7 0 10 #fcfcfc
#000000 #000000;
#X obj 904 500 bng 15 250 50 0 empty empty empty 17 7 0 10 #fcfcfc
#000000 #000000;
#X obj 922 500 bng 15 250 50 0 empty empty empty 17 7 0 10 #fcfcfc
#000000 #000000;
#X obj 940 500 bng 15 250 50 0 empty empty empty 17 7 0 10 #fcfcfc
#000000 #000000;
#X obj 957 500 bng 15 250 50 0 empty empty empty 17 7 0 10 #fcfcfc
#000000 #000000;
#X obj 974 500 bng 15 250 50 0 empty empty empty 17 7 0 10 #fcfcfc
#000000 #000000;
#X obj 869 499 bng 15 250 50 0 empty empty empty 17 7 0 10 #fcfcfc
#000000 #000000;
#X obj 991 500 bng 15 250 50 0 empty empty empty 17 7 0 10 #fcfcfc
#000000 #000000;
#X obj 1008 500 bng 15 250 50 0 empty empty empty 17 7 0 10 #fcfcfc
#000000 #000000;
#X obj 1025 500 bng 15 250 50 0 empty empty empty 17 7 0 10 #fcfcfc
#000000 #000000;
#X obj 1042 501 bng 15 250 50 0 empty empty empty 17 7 0 10 #fcfcfc
#000000 #000000;
#X msg 773 554 0, f 1;
#X msg 841 554 0, f 1;
#X msg 882 554 0, f 1;
#X msg 924 554 0, f 1;
#X msg 942 554 0, f 1;
#X msg 994 554 0, f 1;
#X msg 1029 554 0, f 1;
#X msg 1047 554 0, f 1;
#X obj 1108 499 bng 15 250 50 0 empty empty empty 17 7 0 10 #fcfcfc
#000000 #000000;
#X obj 1125 499 bng 15 250 50 0 empty empty empty 17 7 0 10 #fcfcfc
#000000 #000000;
#X obj 1142 499 bng 15 250 50 0 empty empty empty 17 7 0 10 #fcfcfc
#000000 #000000;
#X obj 1158 499 bng 15 250 50 0 empty empty empty 17 7 0 10 #fcfcfc
#000000 #000000;
#X obj 1175 499 bng 15 250 50 0 empty empty empty 17 7 0 10 #fcfcfc
#000000 #000000;
#X obj 1210 500 bng 15 250 50 0 empty empty empty 17 7 0 10 #fcfcfc
#000000 #000000;
#X obj 1227 500 bng 15 250 50 0 empty empty empty 17 7 0 10 #fcfcfc
#000000 #000000;
#X obj 1245 500 bng 15 250 50 0 empty empty empty 17 7 0 10 #fcfcfc
#000000 #000000;
#X obj 1263 500 bng 15 250 50 0 empty empty empty 17 7 0 10 #fcfcfc
#000000 #000000;
#X obj 1280 500 bng 15 250 50 0 empty empty empty 17 7 0 10 #fcfcfc
#000000 #000000;
#X obj 1297 500 bng 15 250 50 0 empty empty empty 17 7 0 10 #fcfcfc
#000000 #000000;
#X obj 1192 499 bng 15 250 50 0 empty empty empty 17 7 0 10 #fcfcfc
#000000 #000000;
#X obj 1314 500 bng 15 250 50 0 empty empty empty 17 7 0 10 #fcfcfc
#000000 #000000;
#X obj 1331 500 bng 15 250 50 0 empty empty empty 17 7 0 10 #fcfcfc
#000000 #000000;
#X obj 1348 500 bng 15 250 50 0 empty empty empty 17 7 0 10 #fcfcfc
#000000 #000000;
#X obj 1365 501 bng 15 250 50 0 empty empty empty 17 7 0 10 #fcfcfc
#000000 #000000;
#X msg 1096 554 0, f 1;
#X msg 1265 554 0, f 1;
#X obj 530 243 % 64;
#X obj 391 415 select 17 18 19 20 21 22 23 24 25 26 27 28 29 30 31
32;
#X obj 743 440 select 33 34 35 36 37 38 39 40 41 42 43 44 45 46 47
48;
#X obj 1049 411 select 49 50 51 52 53 54 55 56 57 58 59 60 61 62 63
64;
#X msg 408 555 72, f 2;
#X msg 452 554 70, f 2;
#X msg 477 554 65, f 2;
#X msg 560 554 72, f 2;
#X msg 620 554 70, f 2;
#X msg 643 554 65, f 2;
#X msg 684 554 0, f 2;
#X msg 747 555 70, f 2;
#X msg 791 554 69, f 2;
#X msg 816 554 65, f 2;
#X msg 959 554 0, f 1;
#X msg 977 554 0, f 1;
#X msg 1012 554 0, f 1;
#X msg 1139 554 0, f 1;
#X msg 1181 554 0, f 1;
#X msg 1222 554 0, f 1;
#X msg 1240 554 64, f 2;
#X msg 1282 554 65, f 2;
#X msg 1305 554 0, f 1;
#X msg 1321 554 67, f 2;
#X msg 1346 554 0, f 1;
#X msg 1364 554 69, f 2;
#X obj 841 744 hsl 128 15 0 1 0 0 empty empty empty -2 -8 0 10 #00faff
#000000 #000000 0 1;
#X msg 1388 554 0, f 1;
#X msg 629 645 0;
#X msg 519 554 62, f 2;
#X msg 858 554 62, f 2;
#X msg 899 554 58, f 2;
#X msg 1072 554 57, f 2;
#X msg 1114 554 58, f 2;
#X msg 1157 554 60, f 2;
#X msg 1199 554 62, f 2;
#X connect 0 0 2 0;
#X connect 2 0 1 0;
#X connect 2 0 1 1;
#X connect 3 0 2 1;
#X connect 4 0 3 0;
#X connect 5 0 0 0;
#X connect 6 0 19 0;
#X connect 7 0 9 0;
#X connect 8 0 6 0;
#X connect 8 0 53 0;
#X connect 9 0 10 0;
#X connect 9 0 11 0;
#X connect 10 0 9 1;
#X connect 11 0 121 0;
#X connect 12 0 33 0;
#X connect 12 0 122 0;
#X connect 12 0 123 0;
#X connect 12 0 124 0;
#X connect 13 0 37 0;
#X connect 14 0 38 0;
#X connect 15 0 39 0;
#X connect 16 0 40 0;
#X connect 17 0 19 0;
#X connect 18 0 17 0;
#X connect 19 0 7 0;
#X connect 20 0 12 0;
#X connect 21 1 22 0;
#X connect 22 0 23 0;
#X connect 23 0 5 0;
#X connect 24 0 41 0;
#X connect 25 0 43 0;
#X connect 26 0 44 0;
#X connect 27 0 45 0;
#X connect 28 0 46 0;
#X connect 29 0 47 0;
#X connect 30 0 48 0;
#X connect 31 0 42 0;
#X connect 32 0 49 0;
#X connect 33 0 13 0;
#X connect 33 1 14 0;
#X connect 33 2 15 0;
#X connect 33 3 16 0;
#X connect 33 4 24 0;
#X connect 33 5 31 0;
#X connect 33 6 25 0;
#X connect 33 7 26 0;
#X connect 33 8 27 0;
#X connect 33 9 28 0;
#X connect 33 10 29 0;
#X connect 33 11 30 0;
#X connect 33 12 32 0;
#X connect 33 13 34 0;
#X connect 33 14 35 0;
#X connect 33 15 36 0;
#X connect 34 0 50 0;
#X connect 35 0 51 0;
#X connect 36 0 52 0;
#X connect 37 0 21 0;
#X connect 38 0 21 0;
#X connect 39 0 21 0;
#X connect 40 0 21 0;
#X connect 41 0 21 0;
#X connect 42 0 21 0;
#X connect 43 0 21 0;
#X connect 44 0 21 0;
#X connect 45 0 21 0;
#X connect 46 0 21 0;
#X connect 47 0 21 0;
#X connect 48 0 21 0;
#X connect 49 0 21 0;
#X connect 50 0 21 0;
#X connect 51 0 21 0;
#X connect 52 0 21 0;
#X connect 53 0 54 0;
#X connect 54 0 18 0;
#X connect 55 0 125 0;
#X connect 56 0 71 0;
#X connect 57 0 126 0;
#X connect 58 0 127 0;
#X connect 59 0 72 0;
#X connect 60 0 73 0;
#X connect 61 0 128 0;
#X connect 62 0 74 0;
#X connect 63 0 75 0;
#X connect 64 0 129 0;
#X connect 65 0 130 0;
#X connect 66 0 150 0;
#X connect 67 0 76 0;
#X connect 68 0 131 0;
#X connect 69 0 77 0;
#X connect 70 0 78 0;
#X connect 71 0 21 0;
#X connect 72 0 21 0;
#X connect 73 0 21 0;
#X connect 74 0 21 0;
#X connect 75 0 21 0;
#X connect 76 0 21 0;
#X connect 77 0 21 0;
#X connect 78 0 21 0;
#X connect 79 0 132 0;
#X connect 80 0 95 0;
#X connect 81 0 133 0;
#X connect 82 0 134 0;
#X connect 83 0 96 0;
#X connect 84 0 97 0;
#X connect 85 0 152 0;
#X connect 86 0 98 0;
#X connect 87 0 99 0;
#X connect 88 0 135 0;
#X connect 89 0 136 0;
#X connect 90 0 151 0;
#X connect 91 0 100 0;
#X connect 92 0 137 0;
#X connect 93 0 101 0;
#X connect 94 0 102 0;
#X connect 95 0 21 0;
#X connect 96 0 21 0;
#X connect 97 0 21 0;
#X connect 98 0 21 0;
#X connect 99 0 21 0;
#X connect 100 0 21 0;
#X connect 101 0 21 0;
#X connect 102 0 21 0;
#X connect 103 0 153 0;
#X connect 104 0 119 0;
#X connect 105 0 154 0;
#X connect 106 0 138 0;
#X connect 107 0 155 0;
#X connect 108 0 156 0;
#X connect 109 0 140 0;
#X connect 110 0 141 0;
#X connect 111 0 120 0;
#X connect 112 0 142 0;
#X connect 113 0 143 0;
#X connect 114 0 139 0;
#X connect 115 0 144 0;
#X connect 116 0 145 0;
#X connect 117 0 146 0;
#X connect 118 0 148 0;
#X connect 119 0 21 0;
#X connect 120 0 21 0;
#X connect 121 0 20 0;
#X connect 122 0 55 0;
#X connect 122 1 56 0;
#X connect 122 2 57 0;
#X connect 122 3 58 0;
#X connect 122 4 59 0;
#X connect 122 5 66 0;
#X connect 122 6 60 0;
#X connect 122 7 61 0;
#X connect 122 8 62 0;
#X connect 122 9 63 0;
#X connect 122 10 64 0;
#X connect 122 11 65 0;
#X connect 122 12 67 0;
#X connect 122 13 68 0;
#X connect 122 14 69 0;
#X connect 122 15 70 0;
#X connect 123 0 79 0;
#X connect 123 1 80 0;
#X connect 123 2 81 0;
#X connect 123 3 82 0;
#X connect 123 4 83 0;
#X connect 123 5 90 0;
#X connect 123 6 84 0;
#X connect 123 7 85 0;
#X connect 123 8 86 0;
#X connect 123 9 87 0;
#X connect 123 10 88 0;
#X connect 123 11 89 0;
#X connect 123 12 91 0;
#X connect 123 13 92 0;
#X connect 123 14 93 0;
#X connect 123 15 94 0;
#X connect 124 0 103 0;
#X connect 124 1 104 0;
#X connect 124 2 105 0;
#X connect 124 3 106 0;
#X connect 124 4 107 0;
#X connect 124 5 114 0;
#X connect 124 6 108 0;
#X connect 124 7 109 0;
#X connect 124 8 110 0;
#X connect 124 9 111 0;
#X connect 124 10 112 0;
#X connect 124 11 113 0;
#X connect 124 12 115 0;
#X connect 124 13 116 0;
#X connect 124 14 117 0;
#X connect 124 15 118 0;
#X connect 125 0 21 0;
#X connect 126 0 21 0;
#X connect 127 0 21 0;
#X connect 128 0 21 0;
#X connect 129 0 21 0;
#X connect 130 0 21 0;
#X connect 131 0 21 0;
#X connect 132 0 21 0;
#X connect 133 0 21 0;
#X connect 134 0 21 0;
#X connect 135 0 21 0;
#X connect 136 0 21 0;
#X connect 137 0 21 0;
#X connect 138 0 21 0;
#X connect 139 0 21 0;
#X connect 140 0 21 0;
#X connect 141 0 21 0;
#X connect 142 0 21 0;
#X connect 143 0 21 0;
#X connect 144 0 21 0;
#X connect 145 0 21 0;
#X connect 146 0 21 0;
#X connect 147 0 0 1;
#X connect 148 0 21 0;
#X connect 149 0 23 0;
#X connect 150 0 21 0;
#X connect 151 0 21 0;
#X connect 152 0 21 0;
#X connect 153 0 21 0;
#X connect 154 0 21 0;
#X connect 155 0 21 0;
#X connect 156 0 21 0;
