#N canvas -2 0 2040 1291 12;
#X obj 110 78 tgl 15 0 empty empty empty 17 7 0 10 #fcfcfc #000000
#000000 0 1;
#X obj 113 174 bng 15 250 50 0 empty empty empty 17 7 0 10 #fcfcfc
#000000 #000000;
#X obj 102 9 loadbang;
#X obj 107 220 int 1;
#X obj 69 194 + 1;
#X floatatom 107 261 5 0 0 0 - - - 0;
#X obj 107 304 % 4;
#X floatatom 108 391 5 0 0 0 - - - 0;
#X obj 108 481 bng 15 250 50 0 empty empty empty 17 7 0 10 #fcfcfc
#000000 #000000;
#X obj 166 480 bng 15 250 50 0 empty empty empty 17 7 0 10 #fcfcfc
#000000 #000000;
#X obj 221 480 bng 15 250 50 0 empty empty empty 17 7 0 10 #fcfcfc
#000000 #000000;
#X obj 276 480 bng 15 250 50 0 empty empty empty 17 7 0 10 #fcfcfc
#000000 #000000;
#X msg 244 101 tempo \$1 permin;
#X floatatom 221 74 5 0 0 0 - - - 0;
#X msg 178 48 120;
#X obj 111 124 metro;
#X obj 108 343 + 1;
#X obj 113 429 select 1 2 3 4;
#X obj 152 793 *~ 0.25;
#X msg 46 529 0;
#X msg 100 529 51;
#X msg 136 529 53;
#X msg 172 529 54;
#X msg 209 529 56;
#X msg 246 529 58;
#X msg 286 529 59;
#X obj 148 584 select 0;
#X obj 149 621 mtof;
#X floatatom 150 658 5 0 0 0 - - - 0;
#X obj 150 694 phasor~;
#X obj 147 735 expr~ $v1 > $v2;
#X floatatom 253 661 5 0 0 0 - - - 0;
#X obj 253 696 / 100;
#X obj 145 897 output~;
#X obj 152 834 lop~ 500;
#X floatatom 264 874 5 0 0 0 - - - 0;
#X obj 270 826 hsl 128 15 0 2000 0 0 empty empty empty -2 -8 0 10 #e3c6ff
#000000 #000000 0 1;
#X connect 0 0 15 0;
#X connect 1 0 3 0;
#X connect 2 0 0 0;
#X connect 2 0 14 0;
#X connect 3 0 4 0;
#X connect 3 0 5 0;
#X connect 4 0 3 1;
#X connect 5 0 6 0;
#X connect 6 0 16 0;
#X connect 7 0 17 0;
#X connect 8 0 20 0;
#X connect 9 0 21 0;
#X connect 10 0 22 0;
#X connect 11 0 23 0;
#X connect 12 0 15 0;
#X connect 13 0 12 0;
#X connect 14 0 13 0;
#X connect 15 0 1 0;
#X connect 16 0 7 0;
#X connect 17 0 8 0;
#X connect 17 1 9 0;
#X connect 17 2 10 0;
#X connect 17 3 11 0;
#X connect 18 0 34 0;
#X connect 19 0 26 0;
#X connect 20 0 26 0;
#X connect 21 0 26 0;
#X connect 22 0 26 0;
#X connect 23 0 26 0;
#X connect 24 0 26 0;
#X connect 25 0 26 0;
#X connect 26 1 27 0;
#X connect 27 0 28 0;
#X connect 28 0 29 0;
#X connect 29 0 30 0;
#X connect 30 0 18 0;
#X connect 31 0 32 0;
#X connect 32 0 30 1;
#X connect 34 0 33 0;
#X connect 34 0 33 1;
#X connect 35 0 34 1;
#X connect 36 0 35 0;
